<svg width="43" height="44" viewBox="0 0 43 44" fill="none" xmlns="http://www.w3.org/2000/svg">
<path d="M38.2233 26.8368H22.1372C20.7759 26.8368 19.6724 28.5963 19.6724 30.7668V37.2357C19.6724 39.4062 20.7759 41.1657 22.1372 41.1657H38.2233C39.5846 41.1657 40.6881 39.4062 40.6881 37.2357V30.7668C40.6881 28.5963 39.5846 26.8368 38.2233 26.8368Z" stroke="black" stroke-width="4" stroke-miterlimit="10"/>
<path d="M12.5403 26.8368H3.40049C2.62702 26.8368 2 28.5963 2 30.7668V37.2357C2 39.4062 2.62702 41.1657 3.40049 41.1657H12.5403C13.3137 41.1657 13.9408 39.4062 13.9408 37.2357V30.7668C13.9408 28.5963 13.3137 26.8368 12.5403 26.8368Z" stroke="black" stroke-width="4" stroke-miterlimit="10"/>
<path d="M4.48914 21.1052L20.5266 21.1052C21.9013 21.1052 23.0157 18.7592 23.0157 15.8652V7.23999C23.0157 4.34602 21.9013 1.99999 20.5266 1.99999L4.48914 1.99999C3.11442 1.99999 1.99999 4.34602 1.99999 7.23999V15.8652C1.99999 18.7592 3.11442 21.1052 4.48914 21.1052Z" stroke="black" stroke-width="4" stroke-miterlimit="10"/>
<path d="M31.2049 21.5829H38.2306C39.5878 21.5829 40.6881 19.2368 40.6881 16.3429V7.71762C40.6881 4.82365 39.5878 2.47762 38.2306 2.47762H31.2049C29.8476 2.47762 28.7473 4.82365 28.7473 7.71762V16.3429C28.7473 19.2368 29.8476 21.5829 31.2049 21.5829Z" stroke="black" stroke-width="4" stroke-miterlimit="10"/>
</svg>
