<?xml version="1.0" encoding="UTF-8" standalone="no"?>
<!-- Created with Inkscape (http://www.inkscape.org/) -->

<svg
   width="120mm"
   height="10mm"
   viewBox="-5 -2 120 10"
   version="1.1"
   id="svg1"
   inkscape:version="1.4.2 (2aeb623e1d, 2025-05-12)"
   sodipodi:docname="tefhealth_logo.svg"
   xmlns:inkscape="http://www.inkscape.org/namespaces/inkscape"
   xmlns:sodipodi="http://sodipodi.sourceforge.net/DTD/sodipodi-0.dtd"
   xmlns="http://www.w3.org/2000/svg"
   xmlns:svg="http://www.w3.org/2000/svg">
  <sodipodi:namedview
     id="namedview1"
     pagecolor="#ffffff"
     bordercolor="#000000"
     borderopacity="0.25"
     inkscape:showpageshadow="2"
     inkscape:pageopacity="0.0"
     inkscape:pagecheckerboard="0"
     inkscape:deskcolor="#d1d1d1"
     inkscape:document-units="mm"
     inkscape:zoom="2.3080568"
     inkscape:cx="441.71356"
     inkscape:cy="10.831622"
     inkscape:window-width="3374"
     inkscape:window-height="1371"
     inkscape:window-x="0"
     inkscape:window-y="0"
     inkscape:window-maximized="1"
     inkscape:current-layer="layer1" />
  <defs
     id="defs1" />
  <g
     inkscape:label="Layer 1"
     inkscape:groupmode="layer"
     id="layer1"
     transform="translate(-8.4137579,-9.7829169)">
    <path
       d="m 9.7641919,15.076084 v -3.434289 h -1.350434 v -0.640292 h 3.4575751 v 0.640292 H 10.5209 v 3.434289 z m 3.3735431,-2.380718 h 2.02565 v 0.622829 h -2.02565 z m 0.05821,1.746247 h 2.299229 v 0.634471 h -3.055939 v -4.074581 h 2.974446 v 0.634471 h -2.217738 z m 3.83548,-1.565801 h 2.031471 v 0.640289 h -2.031471 z m 0.06403,2.200272 h -0.756709 v -4.074581 h 2.974446 v 0.634471 h -2.217737 z m 2.722509,-1.315508 v -0.605364 h 1.60073 v 0.605364 z m 5.330508,-2.759073 h 0.756708 v 4.074581 h -0.756708 z m -2.107142,4.074581 h -0.756708 v -4.074581 h 0.756708 z m 2.16535,-1.746247 h -2.229379 v -0.646113 h 2.229379 z m 3.181509,1.786993 c -0.345387,0 -0.64807,-0.06792 -0.90805,-0.203729 -0.256117,-0.1397 -0.455983,-0.329856 -0.599546,-0.570442 -0.1397,-0.240585 -0.20955,-0.514165 -0.20955,-0.820737 0,-0.310441 0.06789,-0.58402 0.203729,-0.820735 0.1397,-0.240594 0.32983,-0.428802 0.570442,-0.564621 0.244475,-0.135819 0.521917,-0.203729 0.832379,-0.203729 0.302684,0 0.572373,0.06597 0.809096,0.197908 0.236696,0.13194 0.422963,0.318207 0.5588,0.5588 0.135811,0.240594 0.203729,0.523875 0.203729,0.849839 0,0.03104 -0.002,0.06596 -0.0058,0.104775 0,0.03881 -0.002,0.07567 -0.0058,0.110596 h -2.590312 v -0.483127 h 2.206096 l -0.285221,0.151339 c 0.0039,-0.178503 -0.03299,-0.335666 -0.110596,-0.471484 -0.07763,-0.135819 -0.184335,-0.242536 -0.320146,-0.320146 -0.131948,-0.07761 -0.285221,-0.116417 -0.459846,-0.116417 -0.178514,0 -0.335677,0.03881 -0.471487,0.116417 -0.131948,0.07761 -0.236723,0.186266 -0.314325,0.325966 -0.07374,0.135819 -0.110596,0.296863 -0.110596,0.483127 v 0.116417 c 0,0.186266 0.04268,0.351181 0.128058,0.49477 0.08535,0.14359 0.205661,0.254186 0.360892,0.331788 0.155204,0.0776 0.333719,0.116417 0.535517,0.116417 0.174625,0 0.331787,-0.02717 0.471487,-0.08149 0.1397,-0.05432 0.263869,-0.1397 0.372533,-0.256117 l 0.389996,0.448204 c -0.1397,0.162984 -0.316283,0.28911 -0.529696,0.378354 -0.20955,0.08538 -0.450162,0.128059 -0.721783,0.128059 z m 3.989705,-0.04075 v -0.62865 l -0.04075,-0.133875 V 13.21342 c 0,-0.213431 -0.06403,-0.378354 -0.192087,-0.494771 -0.128059,-0.120298 -0.322078,-0.180446 -0.582084,-0.180446 -0.174625,0 -0.347292,0.02716 -0.518054,0.08149 -0.166846,0.05433 -0.308504,0.129998 -0.424921,0.227013 l -0.28522,-0.529696 c 0.166872,-0.128058 0.364781,-0.223131 0.593725,-0.285221 0.232833,-0.06597 0.473445,-0.09895 0.721783,-0.09895 0.450162,0 0.797454,0.108657 1.041929,0.325967 0.248364,0.213431 0.372533,0.545219 0.372533,0.995362 v 1.821919 z m -0.9779,0.04075 c -0.232833,0 -0.436562,-0.03881 -0.611187,-0.116417 -0.174625,-0.08149 -0.310436,-0.192087 -0.407459,-0.331787 -0.09313,-0.14359 -0.1397,-0.304615 -0.1397,-0.483129 0,-0.174625 0.04075,-0.331788 0.122238,-0.471488 0.08538,-0.1397 0.223149,-0.250296 0.413279,-0.331787 0.190156,-0.08149 0.442383,-0.122235 0.756708,-0.122235 h 0.902229 v 0.483126 h -0.849841 c -0.248338,0 -0.415211,0.04075 -0.500592,0.122238 -0.08535,0.0776 -0.128058,0.174625 -0.128058,0.291041 0,0.131948 0.05239,0.236723 0.157162,0.314325 0.104775,0.0776 0.250296,0.116417 0.436563,0.116417 0.178514,0 0.337608,-0.04075 0.477308,-0.122237 0.143589,-0.08149 0.246433,-0.201798 0.308504,-0.360892 l 0.122238,0.436562 c -0.06985,0.182378 -0.195951,0.324036 -0.378354,0.424921 -0.178488,0.100886 -0.405501,0.151342 -0.681038,0.151342 z m 2.598552,-0.04075 v -4.319056 h 0.727604 v 4.319056 z m 3.00609,0.04075 c -0.341577,0 -0.605366,-0.08731 -0.791633,-0.261938 -0.186267,-0.178514 -0.2794,-0.440451 -0.2794,-0.785812 v -2.788177 h 0.727604 v 2.770714 c 0,0.147453 0.03678,0.261938 0.110596,0.34343 0.07752,0.08149 0.184415,0.122237 0.320146,0.122237 0.162983,0 0.298714,-0.04268 0.407458,-0.128058 l 0.203729,0.518054 c -0.08546,0.06985 -0.190235,0.122237 -0.314325,0.157162 -0.124089,0.03493 -0.252148,0.05239 -0.384175,0.05239 z M 35.42137,12.573128 v -0.582083 h 2.072216 v 0.582083 z m 4.643968,-0.640291 c 0.24844,0 0.46963,0.04851 0.66357,0.145521 0.19791,0.09701 0.35322,0.246414 0.46567,0.448204 0.11245,0.197908 0.1688,0.454025 0.1688,0.76835 v 1.781172 h -0.7276 v -1.688042 c 0,-0.275515 -0.0659,-0.481187 -0.19791,-0.617005 -0.12806,-0.135819 -0.3085,-0.203729 -0.54134,-0.203729 -0.17065,0 -0.32199,0.03493 -0.45402,0.104775 -0.13203,0.06985 -0.23469,0.174625 -0.30851,0.314325 -0.0699,0.135818 -0.10477,0.308504 -0.10477,0.518051 v 1.571625 h -0.7276 v -4.319056 h 0.7276 v 2.048934 l -0.15716,-0.256117 c 0.10874,-0.197908 0.2659,-0.34925 0.47148,-0.454025 0.20955,-0.108656 0.45006,-0.162983 0.72179,-0.162983 z"
       id="path1"
       style="stroke-width:0.264583" />
    <path
       d="m 55.23925,12.138756 v -2.0193 H 54.4582 V 9.9162563 h 1.79705 V 10.119456 H 55.4742 v 2.0193 z m 1.878118,0.01588 c -0.173572,0 -0.325972,-0.03598 -0.457205,-0.10795 -0.131234,-0.07408 -0.233892,-0.174625 -0.307975,-0.301625 -0.07408,-0.129117 -0.111125,-0.276225 -0.111125,-0.441325 0,-0.1651 0.03493,-0.31115 0.104775,-0.43815 0.07197,-0.127 0.169333,-0.226484 0.2921,-0.29845 0.124883,-0.07408 0.264583,-0.111125 0.4191,-0.111125 0.156638,0 0.29528,0.03598 0.41593,0.10795 0.122767,0.06985 0.219075,0.169333 0.288925,0.29845 0.06985,0.127 0.104775,0.274108 0.104775,0.441325 0,0.01058 -0.0011,0.02223 -0.0032,0.03493 0,0.01058 0,0.02223 0,0.03493 h -1.450955 v -0.168275 h 1.33033 l -0.0889,0.06667 c 0,-0.12065 -0.02646,-0.227542 -0.07937,-0.320675 -0.0508,-0.09525 -0.12065,-0.169334 -0.20955,-0.22225 -0.0889,-0.05292 -0.191558,-0.07937 -0.30798,-0.07937 -0.1143,0 -0.216959,0.02646 -0.307975,0.07937 -0.09102,0.05292 -0.161925,0.127 -0.212725,0.22225 -0.0508,0.09525 -0.0762,0.204258 -0.0762,0.327025 v 0.03492 c 0,0.127 0.02752,0.239183 0.08255,0.33655 0.05715,0.09525 0.135466,0.170391 0.23495,0.225425 0.1016,0.05292 0.216958,0.07937 0.34608,0.07937 0.1016,0 0.195792,-0.01799 0.282575,-0.05397 0.0889,-0.03598 0.1651,-0.09102 0.2286,-0.1651 l 0.127,0.14605 c -0.07408,0.0889 -0.167217,0.156633 -0.2794,0.2032 -0.110067,0.04657 -0.231775,0.06985 -0.365125,0.06985 z m 1.655815,0 c -0.137583,0 -0.267758,-0.01905 -0.390525,-0.05715 -0.122766,-0.04022 -0.219075,-0.08996 -0.288925,-0.149225 l 0.1016,-0.1778 c 0.06773,0.0508 0.154517,0.09525 0.26035,0.13335 0.105834,0.03598 0.216959,0.05397 0.333375,0.05397 0.15875,0 0.27305,-0.02434 0.3429,-0.07303 0.06985,-0.0508 0.104775,-0.117475 0.104775,-0.200025 0,-0.06138 -0.02011,-0.109009 -0.06032,-0.142875 -0.0381,-0.03598 -0.0889,-0.06244 -0.1524,-0.07937 -0.0635,-0.01905 -0.134408,-0.03493 -0.212725,-0.04762 -0.07832,-0.0127 -0.156633,-0.02752 -0.23495,-0.04445 -0.0762,-0.01693 -0.14605,-0.04127 -0.20955,-0.07303 -0.0635,-0.03387 -0.115358,-0.07937 -0.155575,-0.136525 -0.0381,-0.05715 -0.05715,-0.13335 -0.05715,-0.2286 0,-0.09102 0.0254,-0.172509 0.0762,-0.244475 0.0508,-0.07197 0.124884,-0.128059 0.22225,-0.168275 0.09948,-0.04233 0.220134,-0.0635 0.36195,-0.0635 0.10795,0 0.2159,0.01482 0.32385,0.04445 0.10795,0.02752 0.19685,0.06456 0.2667,0.111125 l -0.09842,0.180975 c -0.07408,-0.0508 -0.153458,-0.08678 -0.238125,-0.10795 -0.08467,-0.02328 -0.169333,-0.03493 -0.254,-0.03493 -0.150283,0 -0.261408,0.02646 -0.333375,0.07937 -0.06985,0.0508 -0.104775,0.116416 -0.104775,0.19685 0,0.0635 0.01905,0.113241 0.05715,0.149225 0.04022,0.03598 0.09208,0.06456 0.155575,0.08573 0.06562,0.01905 0.136525,0.03492 0.212725,0.04762 0.07832,0.0127 0.155575,0.02857 0.231775,0.04762 0.07832,0.01693 0.149225,0.04127 0.212725,0.07303 0.06562,0.02963 0.117475,0.07303 0.155575,0.130175 0.04022,0.05503 0.06032,0.128058 0.06032,0.219075 0,0.09737 -0.02752,0.182033 -0.08255,0.254 -0.05292,0.06985 -0.131233,0.124883 -0.23495,0.1651 -0.1016,0.0381 -0.225425,0.05715 -0.371475,0.05715 z m 1.629649,0 c -0.156634,0 -0.277284,-0.04233 -0.36195,-0.127 -0.08467,-0.08467 -0.127,-0.204259 -0.127,-0.358775 v -1.565274 h 0.225425 v 1.552574 c 0,0.09737 0.02434,0.172508 0.07303,0.225425 0.0508,0.05292 0.122766,0.07937 0.2159,0.07937 0.09948,0 0.182033,-0.02857 0.24765,-0.08572 l 0.07937,0.161925 c -0.04445,0.04022 -0.09842,0.06985 -0.161925,0.0889 -0.06138,0.01905 -0.124884,0.02858 -0.1905,0.02858 z m -0.7874,-1.495425 v -0.187325 h 1.031875 v 0.187325 z m 1.550193,1.47955 v -1.666875 h 0.225425 v 1.666875 z m 0.1143,-2.035174 c -0.04657,0 -0.08573,-0.01588 -0.117475,-0.04762 -0.03175,-0.03175 -0.04762,-0.06985 -0.04762,-0.1142997 0,-0.04445 0.01588,-0.08149 0.04762,-0.1111264 0.03175,-0.03175 0.07091,-0.04762 0.117475,-0.04762 0.04657,0 0.08572,0.01482 0.117475,0.04445 0.03175,0.02963 0.04762,0.06668 0.04762,0.1111264 0,0.04657 -0.01588,0.08573 -0.04762,0.1174747 -0.02963,0.03175 -0.06879,0.04762 -0.117475,0.04762 z m 1.589273,0.352424 c 0.135467,0 0.254,0.02646 0.3556,0.07937 0.103717,0.0508 0.18415,0.129116 0.2413,0.23495 0.05927,0.105833 0.0889,0.239183 0.0889,0.40005 v 0.968375 h -0.225425 v -0.94615 c 0,-0.175684 -0.04445,-0.307975 -0.13335,-0.396875 -0.08678,-0.09102 -0.20955,-0.136525 -0.3683,-0.136525 -0.118533,0 -0.22225,0.02434 -0.31115,0.07303 -0.08678,0.04657 -0.154517,0.115358 -0.2032,0.206375 -0.04657,0.0889 -0.06985,0.19685 -0.06985,0.32385 v 0.8763 h -0.225425 v -1.666875 h 0.2159 v 0.4572 l -0.03493,-0.08572 c 0.05292,-0.12065 0.137583,-0.214842 0.254,-0.282575 0.116417,-0.06985 0.255058,-0.104775 0.415925,-0.104775 z m 2.005912,2.314575 c -0.1524,0 -0.29845,-0.02223 -0.43815,-0.06668 -0.1397,-0.04445 -0.252942,-0.10795 -0.339725,-0.1905 l 0.1143,-0.17145 c 0.07832,0.06985 0.174625,0.124883 0.288925,0.1651 0.116417,0.04233 0.239184,0.0635 0.3683,0.0635 0.211667,0 0.367242,-0.04974 0.466725,-0.149225 0.09948,-0.09737 0.149225,-0.249767 0.149225,-0.4572 v -0.415925 l 0.03175,-0.28575 -0.02222,-0.28575 v -0.504825 h 0.2159 v 1.463675 c 0,0.287866 -0.07091,0.498475 -0.212725,0.631825 -0.1397,0.135466 -0.347133,0.2032 -0.6223,0.2032 z m -0.04128,-0.695325 c -0.15875,0 -0.301625,-0.03387 -0.428625,-0.1016 -0.127,-0.06985 -0.227542,-0.166159 -0.301625,-0.288925 -0.07197,-0.122767 -0.10795,-0.263525 -0.10795,-0.422275 0,-0.15875 0.03598,-0.29845 0.10795,-0.4191 0.07408,-0.122767 0.174625,-0.218017 0.301625,-0.28575 0.127,-0.06773 0.269875,-0.1016 0.428625,-0.1016 0.148167,0 0.281517,0.03069 0.40005,0.09207 0.118534,0.06138 0.212725,0.1524 0.282575,0.27305 0.06985,0.12065 0.104775,0.267758 0.104775,0.441325 0,0.173566 -0.03492,0.320675 -0.104775,0.441325 -0.06985,0.12065 -0.164041,0.212725 -0.282575,0.276225 -0.118533,0.0635 -0.251883,0.09525 -0.40005,0.09525 z m 0.02223,-0.200025 c 0.122767,0 0.231775,-0.0254 0.327025,-0.0762 0.09525,-0.05292 0.170392,-0.124884 0.225425,-0.2159 0.05503,-0.09313 0.08255,-0.200025 0.08255,-0.320675 0,-0.12065 -0.02752,-0.226484 -0.08255,-0.3175 -0.05504,-0.09102 -0.13018,-0.161925 -0.22543,-0.212725 -0.09525,-0.05292 -0.204258,-0.07937 -0.327025,-0.07937 -0.12065,0 -0.229658,0.02646 -0.327025,0.07937 -0.09525,0.0508 -0.170392,0.121708 -0.225425,0.212725 -0.05292,0.09102 -0.07938,0.19685 -0.07938,0.3175 0,0.12065 0.02646,0.227541 0.07938,0.320675 0.05503,0.09102 0.130175,0.162983 0.225425,0.2159 0.09737,0.0508 0.206375,0.0762 0.327025,0.0762 z m 3.356875,0.263525 v -0.3683 l -0.0095,-0.06032 v -0.61595 c 0,-0.141817 -0.04022,-0.250825 -0.12065,-0.327025 -0.07832,-0.0762 -0.195792,-0.1143 -0.352425,-0.1143 -0.10795,0 -0.210608,0.01799 -0.307975,0.05398 -0.09737,0.03598 -0.179917,0.08361 -0.24765,0.142875 l -0.1016,-0.168275 c 0.08467,-0.07197 0.186267,-0.127 0.3048,-0.1651 0.118533,-0.04022 0.243417,-0.06033 0.37465,-0.06033 0.2159,0 0.382058,0.05397 0.498475,0.161925 0.118533,0.105833 0.1778,0.267758 0.1778,0.485775 v 1.03505 z m -0.57468,0.01588 c -0.124883,0 -0.233892,-0.02011 -0.327025,-0.06033 -0.09102,-0.04233 -0.160867,-0.09948 -0.20955,-0.17145 -0.04868,-0.07408 -0.07303,-0.15875 -0.07303,-0.254 0,-0.08678 0.02011,-0.1651 0.06033,-0.23495 0.04233,-0.07197 0.110067,-0.129117 0.2032,-0.17145 0.09525,-0.04445 0.22225,-0.06668 0.381,-0.06668 h 0.574675 v 0.168275 H 67.67953 c -0.160867,0 -0.27305,0.02858 -0.33655,0.08572 -0.06138,0.05715 -0.09207,0.128058 -0.09207,0.212725 0,0.09525 0.03704,0.17145 0.111125,0.2286 0.07408,0.05715 0.1778,0.08572 0.31115,0.08572 0.127,0 0.236008,-0.02858 0.327025,-0.08572 0.09313,-0.05927 0.160867,-0.143934 0.2032,-0.254 l 0.0508,0.155575 c -0.04233,0.110066 -0.116417,0.197908 -0.22225,0.263525 -0.103717,0.06562 -0.23495,0.09843 -0.3937,0.09843 z m 2.253774,-1.698625 c 0.135466,0 0.254,0.02646 0.3556,0.07937 0.103716,0.0508 0.18415,0.129116 0.2413,0.23495 0.05927,0.105833 0.0889,0.239183 0.0889,0.40005 v 0.968375 h -0.225425 v -0.94615 c 0,-0.175684 -0.04445,-0.307975 -0.13335,-0.396875 -0.08678,-0.09102 -0.20955,-0.136525 -0.3683,-0.136525 -0.118534,0 -0.22225,0.02434 -0.31115,0.07303 -0.08678,0.04657 -0.154517,0.115358 -0.2032,0.206375 -0.04657,0.0889 -0.06985,0.19685 -0.06985,0.32385 v 0.8763 h -0.225425 v -1.666875 h 0.2159 v 0.4572 l -0.03493,-0.08572 c 0.05292,-0.12065 0.137583,-0.214842 0.254,-0.282575 0.116416,-0.06985 0.255058,-0.104775 0.415925,-0.104775 z m 1.95826,1.698625 c -0.15875,0 -0.301625,-0.03598 -0.428625,-0.10795 -0.124883,-0.07197 -0.223308,-0.17145 -0.295275,-0.29845 -0.07197,-0.129117 -0.10795,-0.277284 -0.10795,-0.4445 0,-0.169334 0.03598,-0.3175 0.10795,-0.4445 0.07197,-0.127 0.170392,-0.225425 0.295275,-0.295275 0.127,-0.07197 0.269875,-0.10795 0.428625,-0.10795 0.14605,0 0.276225,0.03281 0.390525,0.09843 0.116417,0.06562 0.208492,0.161925 0.276225,0.288925 0.06985,0.124883 0.104775,0.278341 0.104775,0.460375 0,0.179916 -0.03387,0.333375 -0.1016,0.460375 -0.06773,0.127 -0.159808,0.224366 -0.276225,0.2921 -0.1143,0.06562 -0.245533,0.09843 -0.3937,0.09843 z m 0.01588,-0.200025 c 0.118534,0 0.224367,-0.02646 0.3175,-0.07937 0.09525,-0.05503 0.169334,-0.131234 0.22225,-0.2286 0.05503,-0.09948 0.08255,-0.213784 0.08255,-0.3429 0,-0.131234 -0.02752,-0.245534 -0.08255,-0.3429 -0.05292,-0.09737 -0.127,-0.172509 -0.22225,-0.225425 -0.09313,-0.05503 -0.198966,-0.08255 -0.3175,-0.08255 -0.116416,0 -0.221191,0.02752 -0.314325,0.08255 -0.09313,0.05292 -0.167216,0.128058 -0.22225,0.225425 -0.05503,0.09737 -0.08255,0.211666 -0.08255,0.3429 0,0.129116 0.02752,0.243416 0.08255,0.3429 0.05503,0.09737 0.129117,0.173566 0.22225,0.2286 0.09313,0.05292 0.197909,0.07937 0.314325,0.07937 z m 0.62865,0.18415 v -0.50165 l 0.02223,-0.33655 -0.03175,-0.33655 V 9.7829169 h 0.225425 v 2.3558491 z m 1.931856,-1.228725 h 1.17475 v 0.200025 h -1.17475 z m 0.0254,1.025525 h 1.336675 v 0.2032 H 74.217125 V 9.9162663 h 1.524 v 0.2031997 h -1.28905 z m 1.540801,0.2032 0.70485,-0.9144 -0.0032,0.111125 -0.669925,-0.8636 h 0.254 l 0.549275,0.714375 -0.09525,-0.0032 0.549275,-0.7112 h 0.24765 l -0.676275,0.873125 0.0032,-0.12065 0.7112,0.9144 h -0.257175 l -0.581025,-0.762 0.0889,0.0127 -0.5715,0.7493 z m 2.810457,0.01588 c -0.143934,0 -0.274109,-0.03281 -0.390525,-0.09843 -0.116417,-0.06773 -0.20955,-0.164042 -0.2794,-0.288925 -0.06773,-0.127 -0.1016,-0.281517 -0.1016,-0.46355 0,-0.182034 0.03387,-0.335492 0.1016,-0.460375 0.06773,-0.127 0.159808,-0.223309 0.276225,-0.288925 0.116416,-0.06562 0.24765,-0.09843 0.3937,-0.09843 0.15875,0 0.300566,0.03598 0.42545,0.10795 0.127,0.06985 0.226483,0.169333 0.29845,0.29845 0.07197,0.127 0.10795,0.274108 0.10795,0.441325 0,0.169333 -0.03598,0.3175 -0.10795,0.4445 -0.07197,0.127 -0.17145,0.226483 -0.29845,0.29845 -0.124884,0.07197 -0.2667,0.10795 -0.42545,0.10795 z m -0.860425,0.600075 v -2.282825 h 0.2159 v 0.50165 l -0.02223,0.333375 0.03175,0.33655 v 1.11125 z m 0.84455,-0.8001 c 0.118533,0 0.224366,-0.02646 0.3175,-0.07937 0.09313,-0.05503 0.167216,-0.131234 0.22225,-0.2286 0.05503,-0.09948 0.08255,-0.213784 0.08255,-0.3429 0,-0.129117 -0.02752,-0.242359 -0.08255,-0.339725 -0.05503,-0.09737 -0.129117,-0.173567 -0.22225,-0.2286 -0.09313,-0.05503 -0.198967,-0.08255 -0.3175,-0.08255 -0.118534,0 -0.225425,0.02752 -0.320675,0.08255 -0.09313,0.05503 -0.167217,0.131233 -0.22225,0.2286 -0.05292,0.09737 -0.07938,0.210608 -0.07938,0.339725 0,0.129116 0.02646,0.243416 0.07938,0.3429 0.05503,0.09737 0.129116,0.173566 0.22225,0.2286 0.09525,0.05292 0.202141,0.07937 0.320675,0.07937 z m 2.015278,0.200025 c -0.173567,0 -0.325967,-0.03598 -0.4572,-0.10795 -0.131233,-0.07408 -0.233892,-0.174625 -0.307975,-0.301625 -0.07408,-0.129117 -0.111125,-0.276225 -0.111125,-0.441325 0,-0.1651 0.03493,-0.31115 0.104775,-0.43815 0.07197,-0.127 0.169333,-0.226484 0.2921,-0.29845 0.124883,-0.07408 0.264583,-0.111125 0.4191,-0.111125 0.156633,0 0.295301,0.03598 0.415951,0.10795 0.122767,0.06985 0.219075,0.169333 0.288925,0.29845 0.06985,0.127 0.104775,0.274108 0.104775,0.441325 0,0.01058 -0.0011,0.02223 -0.0032,0.03493 0,0.01058 0,0.02223 0,0.03493 h -1.450976 v -0.168275 h 1.330351 l -0.0889,0.06667 c 0,-0.12065 -0.02646,-0.227542 -0.07938,-0.320675 -0.0508,-0.09525 -0.12065,-0.169334 -0.20955,-0.22225 -0.0889,-0.05292 -0.191584,-0.07937 -0.308001,-0.07937 -0.1143,0 -0.216958,0.02646 -0.307975,0.07937 -0.09102,0.05292 -0.161925,0.127 -0.212725,0.22225 -0.0508,0.09525 -0.0762,0.204258 -0.0762,0.327025 v 0.03492 c 0,0.127 0.02752,0.239183 0.08255,0.33655 0.05715,0.09525 0.135467,0.170391 0.23495,0.225425 0.1016,0.05292 0.216958,0.07937 0.346075,0.07937 0.101626,0 0.195818,-0.01799 0.282601,-0.05397 0.0889,-0.03598 0.1651,-0.09102 0.2286,-0.1651 l 0.127,0.14605 c -0.07408,0.0889 -0.167216,0.156633 -0.2794,0.2032 -0.110066,0.04657 -0.231775,0.06985 -0.365151,0.06985 z m 1.208114,-0.01588 v -1.666875 h 0.2159 v 0.454025 l -0.02222,-0.07937 c 0.04657,-0.127 0.124883,-0.223309 0.23495,-0.288925 0.110067,-0.06773 0.246592,-0.1016 0.409575,-0.1016 v 0.219075 c -0.0085,0 -0.01693,0 -0.0254,0 -0.0085,-0.0021 -0.01693,-0.0032 -0.0254,-0.0032 -0.175683,0 -0.313267,0.05397 -0.41275,0.161925 -0.09948,0.105833 -0.149225,0.257175 -0.149225,0.454025 v 0.8509 z m 1.249627,0 v -1.666875 h 0.225425 v 1.666875 z m 0.1143,-2.035174 c -0.04657,0 -0.08573,-0.01588 -0.117475,-0.04762 -0.03175,-0.03175 -0.04763,-0.06985 -0.04763,-0.1142997 0,-0.04445 0.01588,-0.08149 0.04763,-0.1111264 0.03175,-0.03175 0.07091,-0.04762 0.117475,-0.04762 0.04657,0 0.08573,0.01482 0.117475,0.04445 0.03175,0.02963 0.04763,0.06668 0.04763,0.1111264 0,0.04657 -0.01588,0.08573 -0.04763,0.1174747 -0.02963,0.03175 -0.06879,0.04762 -0.117475,0.04762 z m 2.820988,0.352424 c 0.135466,0 0.252941,0.02646 0.352425,0.07937 0.1016,0.0508 0.179916,0.129116 0.23495,0.23495 0.05715,0.105833 0.08572,0.239183 0.08572,0.40005 v 0.968375 h -0.22542 v -0.94615 c 0,-0.175684 -0.04233,-0.307975 -0.127,-0.396875 -0.08255,-0.09102 -0.200025,-0.136525 -0.352425,-0.136525 -0.1143,0 -0.213784,0.02434 -0.29845,0.07303 -0.08255,0.04657 -0.147109,0.115358 -0.193675,0.206375 -0.04445,0.0889 -0.06668,0.19685 -0.06668,0.32385 v 0.8763 h -0.22542 v -0.94615 c 0,-0.175684 -0.04233,-0.307975 -0.127,-0.396875 -0.08467,-0.09102 -0.2032,-0.136525 -0.3556,-0.136525 -0.112184,0 -0.210609,0.02434 -0.295275,0.07303 -0.08467,0.04657 -0.150284,0.115358 -0.19685,0.206375 -0.04445,0.0889 -0.06668,0.19685 -0.06668,0.32385 v 0.8763 h -0.22542 v -1.666875 h 0.2159 v 0.45085 l -0.03492,-0.07937 c 0.0508,-0.12065 0.132291,-0.214842 0.244475,-0.282575 0.1143,-0.06985 0.248708,-0.104775 0.403225,-0.104775 0.162983,0 0.301625,0.04127 0.415925,0.123825 0.1143,0.08043 0.188383,0.202141 0.22225,0.365125 l -0.0889,-0.03493 c 0.04868,-0.135467 0.134408,-0.244475 0.257175,-0.327025 0.124883,-0.08467 0.274108,-0.127 0.447675,-0.127 z m 1.992577,1.698625 c -0.173567,0 -0.325967,-0.03598 -0.4572,-0.10795 -0.131234,-0.07408 -0.233892,-0.174625 -0.307975,-0.301625 -0.07408,-0.129117 -0.111125,-0.276225 -0.111125,-0.441325 0,-0.1651 0.03492,-0.31115 0.104775,-0.43815 0.07197,-0.127 0.169333,-0.226484 0.2921,-0.29845 0.124883,-0.07408 0.264583,-0.111125 0.4191,-0.111125 0.156633,0 0.295275,0.03598 0.415925,0.10795 0.122766,0.06985 0.219075,0.169333 0.288925,0.29845 0.06985,0.127 0.104775,0.274108 0.104775,0.441325 0,0.01058 -0.0011,0.02223 -0.0032,0.03493 0,0.01058 0,0.02223 0,0.03493 h -1.45095 v -0.168275 h 1.330325 l -0.0889,0.06667 c 0,-0.12065 -0.02646,-0.227542 -0.07937,-0.320675 -0.0508,-0.09525 -0.12065,-0.169334 -0.20955,-0.22225 -0.0889,-0.05292 -0.191559,-0.07937 -0.307975,-0.07937 -0.1143,0 -0.216959,0.02646 -0.307975,0.07937 -0.09102,0.05292 -0.161925,0.127 -0.212725,0.22225 -0.0508,0.09525 -0.0762,0.204258 -0.0762,0.327025 v 0.03492 c 0,0.127 0.02752,0.239183 0.08255,0.33655 0.05715,0.09525 0.135466,0.170391 0.23495,0.225425 0.1016,0.05292 0.216958,0.07937 0.346075,0.07937 0.1016,0 0.195791,-0.01799 0.282575,-0.05397 0.0889,-0.03598 0.1651,-0.09102 0.2286,-0.1651 l 0.127,0.14605 c -0.07408,0.0889 -0.167217,0.156633 -0.2794,0.2032 -0.110067,0.04657 -0.231775,0.06985 -0.365125,0.06985 z m 2.058987,-1.698625 c 0.135467,0 0.254,0.02646 0.3556,0.07937 0.103717,0.0508 0.18415,0.129116 0.2413,0.23495 0.05927,0.105833 0.0889,0.239183 0.0889,0.40005 v 0.968375 h -0.225425 v -0.94615 c 0,-0.175684 -0.04445,-0.307975 -0.13335,-0.396875 -0.08678,-0.09102 -0.20955,-0.136525 -0.3683,-0.136525 -0.118533,0 -0.22225,0.02434 -0.31115,0.07303 -0.08678,0.04657 -0.154517,0.115358 -0.2032,0.206375 -0.04657,0.0889 -0.06985,0.19685 -0.06985,0.32385 v 0.8763 h -0.225425 v -1.666875 h 0.2159 v 0.4572 l -0.03493,-0.08572 c 0.05292,-0.12065 0.137583,-0.214842 0.254,-0.282575 0.116417,-0.06985 0.255058,-0.104775 0.415925,-0.104775 z m 1.821921,1.698625 c -0.156633,0 -0.277283,-0.04233 -0.36195,-0.127 -0.08467,-0.08467 -0.127,-0.204259 -0.127,-0.358775 v -1.565274 h 0.225425 v 1.552574 c 0,0.09737 0.02434,0.172508 0.07303,0.225425 0.0508,0.05292 0.122767,0.07937 0.2159,0.07937 0.09948,0 0.182033,-0.02857 0.24765,-0.08572 l 0.07937,0.161925 c -0.04445,0.04022 -0.09842,0.06985 -0.161925,0.0889 -0.06138,0.01905 -0.124883,0.02858 -0.1905,0.02858 z m -0.7874,-1.495425 v -0.187325 h 1.031875 v 0.187325 z m 2.594769,1.47955 v -0.3683 l -0.0095,-0.06032 v -0.61595 c 0,-0.141817 -0.04022,-0.250825 -0.12065,-0.327025 -0.07832,-0.0762 -0.195792,-0.1143 -0.352425,-0.1143 -0.10795,0 -0.210609,0.01799 -0.307975,0.05398 -0.09737,0.03598 -0.179917,0.08361 -0.24765,0.142875 l -0.1016,-0.168275 c 0.08467,-0.07197 0.186266,-0.127 0.3048,-0.1651 0.118533,-0.04022 0.243416,-0.06033 0.37465,-0.06033 0.2159,0 0.382058,0.05397 0.498475,0.161925 0.118533,0.105833 0.1778,0.267758 0.1778,0.485775 v 1.03505 z m -0.574675,0.01588 c -0.124884,0 -0.233892,-0.02011 -0.327025,-0.06033 -0.09102,-0.04233 -0.160867,-0.09948 -0.20955,-0.17145 -0.04868,-0.07408 -0.07302,-0.15875 -0.07302,-0.254 0,-0.08678 0.02011,-0.1651 0.06032,-0.23495 0.04233,-0.07197 0.110066,-0.129117 0.2032,-0.17145 0.09525,-0.04445 0.22225,-0.06668 0.381,-0.06668 h 0.574675 v 0.168275 h -0.568325 c -0.160867,0 -0.27305,0.02858 -0.33655,0.08572 -0.06138,0.05715 -0.09208,0.128058 -0.09208,0.212725 0,0.09525 0.03704,0.17145 0.111125,0.2286 0.07408,0.05715 0.1778,0.08572 0.31115,0.08572 0.127,0 0.236008,-0.02858 0.327025,-0.08572 0.09313,-0.05927 0.160866,-0.143934 0.2032,-0.254 l 0.0508,0.155575 c -0.04233,0.110066 -0.116417,0.197908 -0.22225,0.263525 -0.103717,0.06562 -0.23495,0.09843 -0.3937,0.09843 z m 1.929871,0 c -0.156634,0 -0.277284,-0.04233 -0.36195,-0.127 -0.08467,-0.08467 -0.127,-0.204259 -0.127,-0.358775 v -1.565274 h 0.225425 v 1.552574 c 0,0.09737 0.02434,0.172508 0.07303,0.225425 0.0508,0.05292 0.122766,0.07937 0.2159,0.07937 0.09948,0 0.182033,-0.02857 0.24765,-0.08572 l 0.07937,0.161925 c -0.04445,0.04022 -0.09842,0.06985 -0.161925,0.0889 -0.06138,0.01905 -0.124884,0.02858 -0.1905,0.02858 z m -0.7874,-1.495425 v -0.187325 h 1.031875 v 0.187325 z m 1.550193,1.47955 v -1.66689 h 0.225425 v 1.666875 z m 0.1143,-2.035174 c -0.04657,0 -0.08572,-0.01588 -0.117475,-0.04762 -0.03175,-0.03175 -0.04762,-0.06985 -0.04762,-0.1142997 0,-0.04445 0.01588,-0.08149 0.04762,-0.1111264 0.03175,-0.03175 0.07091,-0.04762 0.117475,-0.04762 0.04657,0 0.08573,0.01482 0.117475,0.04445 0.03175,0.02963 0.04762,0.06668 0.04762,0.1111264 0,0.04657 -0.01588,0.08573 -0.04762,0.1174747 -0.02963,0.03175 -0.06879,0.04762 -0.117475,0.04762 z m 1.417638,2.051049 c -0.160867,0 -0.305859,-0.03598 -0.434975,-0.10795 -0.127,-0.07408 -0.227542,-0.174625 -0.301625,-0.301625 -0.07408,-0.129117 -0.111125,-0.276225 -0.111125,-0.441325 0,-0.167217 0.03704,-0.314325 0.111125,-0.441325 0.07408,-0.127 0.174625,-0.226484 0.301625,-0.29845 0.127,-0.07197 0.271991,-0.10795 0.434975,-0.10795 0.1651,0 0.31115,0.03598 0.43815,0.10795 0.129116,0.07197 0.229658,0.17145 0.301625,0.29845 0.07408,0.127 0.111125,0.274108 0.111125,0.441325 0,0.1651 -0.03704,0.312208 -0.111125,0.441325 -0.07197,0.127 -0.172509,0.227541 -0.301625,0.301625 -0.129117,0.07197 -0.275167,0.10795 -0.43815,0.10795 z m 0,-0.200025 c 0.12065,0 0.227541,-0.02646 0.320675,-0.07937 0.09313,-0.05503 0.166158,-0.131234 0.219075,-0.2286 0.05503,-0.09948 0.08255,-0.213784 0.08255,-0.3429 0,-0.131234 -0.02752,-0.245534 -0.08255,-0.3429 -0.05292,-0.09737 -0.125942,-0.172509 -0.219075,-0.225425 -0.09313,-0.05503 -0.198967,-0.08255 -0.3175,-0.08255 -0.118534,0 -0.224367,0.02752 -0.3175,0.08255 -0.09313,0.05292 -0.167217,0.128058 -0.22225,0.225425 -0.05503,0.09737 -0.08255,0.211666 -0.08255,0.3429 0,0.129116 0.02752,0.243416 0.08255,0.3429 0.05503,0.09737 0.129116,0.173566 0.22225,0.2286 0.09313,0.05292 0.197908,0.07937 0.314325,0.07937 z m 2.162182,-1.4986 c 0.13546,0 0.254,0.02646 0.355602,0.07937 0.10371,0.0508 0.18415,0.129116 0.2413,0.23495 0.0593,0.105833 0.0889,0.239183 0.0889,0.40005 v 0.968375 h -0.22543 v -0.94615 c 0,-0.175684 -0.0445,-0.307975 -0.13335,-0.396875 -0.0868,-0.09102 -0.209552,-0.136525 -0.368302,-0.136525 -0.11853,0 -0.22225,0.02434 -0.31115,0.07303 -0.0868,0.04657 -0.15452,0.115358 -0.2032,0.206375 -0.0466,0.0889 -0.0699,0.19685 -0.0699,0.32385 v 0.8763 h -0.225427 v -1.666875 h 0.215897 v 0.4572 l -0.0349,-0.08572 c 0.0529,-0.12065 0.13759,-0.214842 0.254,-0.282575 0.11642,-0.06985 0.25506,-0.104775 0.41593,-0.104775 z m 2.382842,0.536575 h 1.17476 v 0.2032 h -1.17476 z m 0.0254,1.146175 h -0.23495 V 9.9162713 h 1.52401 v 0.2031997 h -1.28906 z m 2.70301,0 v -0.3683 l -0.01,-0.06032 v -0.61595 c 0,-0.141817 -0.0402,-0.250825 -0.12066,-0.327025 -0.0783,-0.0762 -0.19579,-0.1143 -0.35242,-0.1143 -0.10795,0 -0.21061,0.01799 -0.30798,0.05398 -0.0974,0.03598 -0.17992,0.08361 -0.24765,0.142875 l -0.1016,-0.168275 c 0.0847,-0.07197 0.18627,-0.127 0.3048,-0.1651 0.11853,-0.04022 0.24342,-0.06033 0.37465,-0.06033 0.2159,0 0.38206,0.05397 0.49849,0.161925 0.11853,0.105833 0.1778,0.267758 0.1778,0.485775 v 1.03505 z m -0.57468,0.01588 c -0.12489,0 -0.2339,-0.02011 -0.32703,-0.06033 -0.091,-0.04233 -0.16087,-0.09948 -0.20955,-0.17145 -0.0487,-0.07408 -0.073,-0.15875 -0.073,-0.254 0,-0.08678 0.0201,-0.1651 0.0603,-0.23495 0.0423,-0.07197 0.11007,-0.129117 0.2032,-0.17145 0.0952,-0.04445 0.22225,-0.06668 0.381,-0.06668 h 0.57469 v 0.168275 h -0.56834 c -0.16087,0 -0.27305,0.02858 -0.33655,0.08572 -0.0614,0.05715 -0.0921,0.128058 -0.0921,0.212725 0,0.09525 0.037,0.17145 0.11113,0.2286 0.0741,0.05715 0.1778,0.08572 0.31115,0.08572 0.127,0 0.236,-0.02858 0.32702,-0.08572 0.0931,-0.05927 0.16087,-0.143934 0.20321,-0.254 l 0.0508,0.155575 c -0.0423,0.110066 -0.11643,0.197908 -0.22226,0.263525 -0.10372,0.06562 -0.23495,0.09843 -0.3937,0.09843 z m 2.09498,0 c -0.1651,0 -0.31327,-0.03598 -0.4445,-0.10795 -0.12912,-0.07408 -0.23072,-0.174625 -0.3048,-0.301625 -0.0741,-0.129117 -0.11113,-0.276225 -0.11113,-0.441325 0,-0.167217 0.037,-0.314325 0.11113,-0.441325 0.0741,-0.127 0.17568,-0.226484 0.3048,-0.29845 0.13123,-0.07197 0.2794,-0.10795 0.4445,-0.10795 0.14181,0 0.26987,0.02752 0.38417,0.08255 0.1143,0.05503 0.20427,0.137583 0.26989,0.24765 l -0.16829,0.1143 c -0.0572,-0.08467 -0.12806,-0.147109 -0.21272,-0.187325 -0.0847,-0.04022 -0.17674,-0.06033 -0.27623,-0.06033 -0.11853,0 -0.22542,0.02752 -0.32067,0.08255 -0.0953,0.05292 -0.17039,0.128058 -0.22543,0.225425 -0.055,0.09737 -0.0825,0.211666 -0.0825,0.3429 0,0.131233 0.0275,0.245533 0.0825,0.3429 0.055,0.09737 0.13018,0.173566 0.22543,0.2286 0.0952,0.05292 0.20214,0.07937 0.32067,0.07937 0.0995,0 0.19156,-0.02011 0.27623,-0.06032 0.0847,-0.04022 0.15557,-0.1016 0.21272,-0.18415 l 0.16829,0.1143 c -0.0656,0.10795 -0.15559,0.1905 -0.26989,0.24765 -0.1143,0.05503 -0.24236,0.08255 -0.38417,0.08255 z m 1.0721,-0.01588 v -1.666875 h 0.22542 v 1.666875 z m 0.1143,-2.035174 c -0.0466,0 -0.0857,-0.01588 -0.11748,-0.04762 -0.0318,-0.03175 -0.0476,-0.06985 -0.0476,-0.1142997 0,-0.04445 0.0159,-0.08149 0.0476,-0.1111264 0.0318,-0.03175 0.0709,-0.04762 0.11748,-0.04762 0.0466,0 0.0857,0.01482 0.11747,0.04445 0.0318,0.02963 0.0476,0.06668 0.0476,0.1111264 0,0.04657 -0.0159,0.08573 -0.0476,0.1174747 -0.0296,0.03175 -0.0688,0.04762 -0.11747,0.04762 z m 0.73819,2.035174 V 9.7829219 h 0.22542 v 2.3558491 z m 0.85276,0 v -1.666875 h 0.22542 v 1.666875 z m 0.1143,-2.035174 c -0.0466,0 -0.0857,-0.01588 -0.11748,-0.04762 -0.0318,-0.03175 -0.0476,-0.06985 -0.0476,-0.1142997 0,-0.04445 0.0159,-0.08149 0.0476,-0.1111264 0.0318,-0.03175 0.0709,-0.04762 0.11748,-0.04762 0.0466,0 0.0857,0.01482 0.11747,0.04445 0.0318,0.02963 0.0476,0.06668 0.0476,0.1111264 0,0.04657 -0.0159,0.08573 -0.0476,0.1174747 -0.0296,0.03175 -0.0688,0.04762 -0.11747,0.04762 z m 1.26551,2.051049 c -0.15663,0 -0.27728,-0.04233 -0.36195,-0.127 -0.0847,-0.08467 -0.12701,-0.204259 -0.12701,-0.358775 v -1.565274 h 0.22544 v 1.552574 c 0,0.09737 0.0243,0.172508 0.073,0.225425 0.0508,0.05292 0.12276,0.07937 0.2159,0.07937 0.0995,0 0.18203,-0.02857 0.24765,-0.08572 l 0.0794,0.161925 c -0.0445,0.04022 -0.0984,0.06985 -0.16193,0.0889 -0.0614,0.01905 -0.12488,0.02858 -0.1905,0.02858 z m -0.78741,-1.495425 v -0.187325 h 1.03189 v 0.187325 z m 1.53195,2.111375 c -0.0783,0 -0.15346,-0.0127 -0.22543,-0.0381 -0.0699,-0.0254 -0.13017,-0.0635 -0.18097,-0.1143 l 0.10477,-0.168275 c 0.0423,0.04022 0.0878,0.07091 0.13653,0.09208 0.0508,0.02328 0.10689,0.03493 0.16827,0.03493 0.0741,0 0.13759,-0.02117 0.1905,-0.0635 0.055,-0.04022 0.10689,-0.112184 0.15558,-0.2159 l 0.10795,-0.244475 0.0254,-0.03493 0.6858,-1.546225 h 0.22225 l -0.83503,1.8669 c -0.0466,0.10795 -0.0984,0.193675 -0.15557,0.257175 -0.055,0.0635 -0.11536,0.10795 -0.18098,0.13335 -0.0656,0.02752 -0.13864,0.04127 -0.21907,0.04127 z m 0.4445,-0.5842 -0.76835,-1.7145 h 0.23495 l 0.67945,1.53035 z m -56.868555,3.921125 v -1.876425 c 0,-0.148167 0.04339,-0.267759 0.130175,-0.358775 0.08678,-0.09102 0.211666,-0.136525 0.37465,-0.136525 0.0635,0 0.124883,0.0085 0.18415,0.0254 0.05927,0.01693 0.109008,0.04339 0.149225,0.07937 l -0.0762,0.168275 c -0.03175,-0.02752 -0.06879,-0.04762 -0.111125,-0.06032 -0.04233,-0.01482 -0.08784,-0.02223 -0.136525,-0.02223 -0.09525,0 -0.168275,0.02646 -0.219075,0.07937 -0.0508,0.05292 -0.0762,0.131233 -0.0762,0.23495 v 0.254 l 0.0063,0.104775 v 1.508125 z m -0.29845,-1.47955 v -0.187325 h 1.031875 v 0.187325 z m 1.987798,1.495425 c -0.160866,0 -0.305858,-0.03598 -0.434975,-0.10795 -0.127,-0.07408 -0.227541,-0.174625 -0.301625,-0.301625 -0.07408,-0.129117 -0.111125,-0.276225 -0.111125,-0.441325 0,-0.167217 0.03704,-0.314325 0.111125,-0.441325 0.07408,-0.127 0.174625,-0.226484 0.301625,-0.29845 0.127,-0.07197 0.271992,-0.10795 0.434975,-0.10795 0.1651,0 0.31115,0.03598 0.43815,0.10795 0.129117,0.07197 0.229648,0.17145 0.301615,0.29845 0.07408,0.127 0.111125,0.274108 0.111125,0.441325 0,0.1651 -0.03704,0.312208 -0.111125,0.441325 -0.07197,0.127 -0.172498,0.227541 -0.301615,0.301625 -0.129116,0.07197 -0.275166,0.10795 -0.43815,0.10795 z m 0,-0.200025 c 0.12065,0 0.227542,-0.02646 0.320675,-0.07937 0.09313,-0.05503 0.166159,-0.131234 0.219075,-0.2286 0.05503,-0.09948 0.08254,-0.213784 0.08254,-0.3429 0,-0.131234 -0.02751,-0.245534 -0.08254,-0.3429 -0.05292,-0.09737 -0.125941,-0.172509 -0.219075,-0.225425 -0.09313,-0.05503 -0.198966,-0.08255 -0.3175,-0.08255 -0.118533,0 -0.224366,0.02752 -0.3175,0.08255 -0.09313,0.05292 -0.167216,0.128058 -0.22225,0.225425 -0.05503,0.09737 -0.08255,0.211666 -0.08255,0.3429 0,0.129116 0.02752,0.243416 0.08255,0.3429 0.05503,0.09737 0.129117,0.173566 0.22225,0.2286 0.09313,0.05292 0.197909,0.07937 0.314325,0.07937 z m 1.311132,0.18415 v -1.666875 h 0.2159 v 0.454025 l -0.02222,-0.07937 c 0.04657,-0.127 0.124884,-0.223309 0.23495,-0.288925 0.110067,-0.06773 0.246592,-0.1016 0.409575,-0.1016 v 0.219075 c -0.0085,0 -0.01693,0 -0.0254,0 -0.0085,-0.0021 -0.01693,-0.0032 -0.0254,-0.0032 -0.175683,0 -0.313266,0.05397 -0.41275,0.161925 -0.09948,0.105838 -0.149225,0.25718 -0.149225,0.45403 v 0.8509 z m 3.778515,-2.2225 h 0.231775 v 2.2225 H 61.57692 Z m -1.39065,2.2225 h -0.23495 v -2.2225 h 0.23495 z m 1.412875,-1.025525 H 60.16087 v -0.206375 h 1.438275 z m 1.595358,1.0414 c -0.173566,0 -0.325966,-0.03598 -0.4572,-0.10795 -0.131233,-0.07408 -0.233891,-0.174625 -0.307975,-0.301625 -0.07408,-0.129117 -0.111125,-0.276225 -0.111125,-0.441325 0,-0.1651 0.03493,-0.31115 0.104775,-0.43815 0.07197,-0.127 0.169334,-0.226484 0.2921,-0.29845 0.124884,-0.07408 0.264584,-0.111125 0.4191,-0.111125 0.156634,0 0.295275,0.03598 0.415925,0.10795 0.122767,0.06985 0.219075,0.169333 0.288925,0.29845 0.06985,0.127 0.104775,0.274108 0.104775,0.441325 0,0.01058 -0.0011,0.02223 -0.0032,0.03493 0,0.01058 0,0.02223 0,0.03493 h -1.45097 v -0.168275 h 1.330325 l -0.0889,0.06667 c 0,-0.12065 -0.02646,-0.227542 -0.07937,-0.320675 -0.0508,-0.09525 -0.12065,-0.169334 -0.20955,-0.22225 -0.0889,-0.05292 -0.191558,-0.07937 -0.307975,-0.07937 -0.1143,0 -0.216958,0.02646 -0.307975,0.07937 -0.09102,0.05292 -0.161925,0.127 -0.212725,0.22225 -0.0508,0.09525 -0.0762,0.204258 -0.0762,0.327025 v 0.03492 c 0,0.127 0.02752,0.239183 0.08255,0.33655 0.05715,0.09525 0.135467,0.170391 0.23495,0.225425 0.1016,0.05292 0.216959,0.07937 0.346075,0.07937 0.1016,0 0.195792,-0.01799 0.282575,-0.05397 0.0889,-0.03598 0.1651,-0.09102 0.2286,-0.1651 l 0.127,0.14605 c -0.07408,0.0889 -0.167216,0.156633 -0.2794,0.2032 -0.110066,0.04657 -0.231775,0.06985 -0.365125,0.06985 z m 2.206202,-0.01588 v -0.3683 l -0.0095,-0.06032 v -0.61595 c 0,-0.141817 -0.04022,-0.250825 -0.12065,-0.327025 -0.07832,-0.0762 -0.195791,-0.1143 -0.352425,-0.1143 -0.10795,0 -0.210608,0.01799 -0.307975,0.05398 -0.09737,0.03598 -0.179917,0.08361 -0.24765,0.142875 l -0.1016,-0.168275 c 0.08467,-0.07197 0.186267,-0.127 0.3048,-0.1651 0.118534,-0.04022 0.243417,-0.06033 0.37465,-0.06033 0.2159,0 0.382059,0.05397 0.498475,0.161925 0.118534,0.105833 0.1778,0.267758 0.1778,0.485775 v 1.03505 z m -0.574675,0.01588 c -0.124883,0 -0.233891,-0.02011 -0.327025,-0.06033 -0.09102,-0.04233 -0.160867,-0.09948 -0.20955,-0.17145 -0.04868,-0.07408 -0.07303,-0.15875 -0.07303,-0.254 0,-0.08678 0.02011,-0.1651 0.06032,-0.23495 0.04233,-0.07197 0.110067,-0.129117 0.2032,-0.17145 0.09525,-0.04445 0.22225,-0.06668 0.381,-0.06668 h 0.574675 v 0.168275 h -0.568325 c -0.160866,0 -0.27305,0.02858 -0.33655,0.08572 -0.06138,0.05715 -0.09208,0.128058 -0.09208,0.212725 0,0.09525 0.03704,0.17145 0.111125,0.2286 0.07408,0.05715 0.1778,0.08572 0.31115,0.08572 0.127,0 0.236009,-0.02858 0.327025,-0.08572 0.09313,-0.05927 0.160867,-0.143934 0.2032,-0.254 l 0.0508,0.155575 c -0.04233,0.110066 -0.116416,0.197908 -0.22225,0.263525 -0.103716,0.06562 -0.23495,0.09843 -0.3937,0.09843 z m 1.402874,-0.01588 v -2.35585 h 0.225425 v 2.35585 z m 1.38901,0.01588 c -0.156634,0 -0.277284,-0.04233 -0.36195,-0.127 -0.08467,-0.08467 -0.127,-0.204259 -0.127,-0.358775 v -1.565275 h 0.225425 v 1.552575 c 0,0.09737 0.02434,0.172508 0.07302,0.225425 0.0508,0.05292 0.122766,0.07937 0.2159,0.07937 0.09948,0 0.182033,-0.02857 0.24765,-0.08572 l 0.07938,0.161925 c -0.04445,0.04022 -0.09843,0.06985 -0.161925,0.0889 -0.06138,0.01905 -0.124884,0.02858 -0.1905,0.02858 z m -0.7874,-1.495425 v -0.187325 h 1.031875 v 0.187325 z m 2.401093,-0.2032 c 0.135467,0 0.254,0.02646 0.3556,0.07937 0.103717,0.0508 0.18415,0.129116 0.2413,0.23495 0.05927,0.105833 0.0889,0.239183 0.0889,0.40005 v 0.968375 h -0.225425 v -0.94615 c 0,-0.175684 -0.04445,-0.307975 -0.13335,-0.396875 -0.08678,-0.09102 -0.20955,-0.136525 -0.3683,-0.136525 -0.118533,0 -0.22225,0.02434 -0.31115,0.07303 -0.08678,0.04657 -0.154516,0.115358 -0.2032,0.206375 -0.04657,0.0889 -0.06985,0.19685 -0.06985,0.32385 v 0.8763 h -0.225425 v -2.35585 h 0.225425 v 1.146175 l -0.04445,-0.08572 c 0.05292,-0.12065 0.137584,-0.214842 0.254,-0.282575 0.116417,-0.06985 0.255059,-0.104775 0.415925,-0.104775 z m 1.817688,1.68275 1.016,-2.2225 h 0.231775 l 1.016,2.2225 h -0.24765 l -0.93345,-2.085975 h 0.09525 l -0.93345,2.085975 z m 0.40005,-0.593725 0.06985,-0.1905 h 1.292225 l 0.06985,0.1905 z m 2.231363,0.593725 v -2.2225 h 0.23495 v 2.2225 z m 2.78601,0 v -0.3683 l -0.0095,-0.06032 v -0.61595 c 0,-0.141817 -0.04022,-0.250825 -0.12065,-0.327025 -0.07832,-0.0762 -0.195792,-0.1143 -0.352425,-0.1143 -0.10795,0 -0.210608,0.01799 -0.307975,0.05398 -0.09737,0.03598 -0.179917,0.08361 -0.24765,0.142875 l -0.1016,-0.168275 c 0.08467,-0.07197 0.186267,-0.127 0.3048,-0.1651 0.118533,-0.04022 0.243417,-0.06033 0.37465,-0.06033 0.2159,0 0.382058,0.05397 0.498475,0.161925 0.118533,0.105833 0.1778,0.267758 0.1778,0.485775 v 1.03505 z m -0.574675,0.01588 c -0.124883,0 -0.233892,-0.02011 -0.327025,-0.06033 -0.09102,-0.04233 -0.160867,-0.09948 -0.20955,-0.17145 -0.04868,-0.07408 -0.07302,-0.15875 -0.07302,-0.254 0,-0.08678 0.02011,-0.1651 0.06032,-0.23495 0.04233,-0.07197 0.110067,-0.129117 0.2032,-0.17145 0.09525,-0.04445 0.22225,-0.06668 0.381,-0.06668 h 0.574675 v 0.168275 h -0.568325 c -0.160867,0 -0.27305,0.02858 -0.33655,0.08572 -0.06138,0.05715 -0.09208,0.128058 -0.09208,0.212725 0,0.09525 0.03704,0.17145 0.111125,0.2286 0.07408,0.05715 0.1778,0.08572 0.31115,0.08572 0.127,0 0.236008,-0.02858 0.327025,-0.08572 0.09313,-0.05927 0.160867,-0.143934 0.2032,-0.254 l 0.0508,0.155575 c -0.04233,0.110066 -0.116417,0.197908 -0.22225,0.263525 -0.103717,0.06562 -0.23495,0.09843 -0.3937,0.09843 z m 2.253747,-1.698625 c 0.135467,0 0.254,0.02646 0.3556,0.07937 0.103717,0.0508 0.18415,0.129116 0.2413,0.23495 0.05927,0.105833 0.0889,0.239183 0.0889,0.40005 v 0.968375 h -0.225425 v -0.94615 c 0,-0.175684 -0.04445,-0.307975 -0.13335,-0.396875 -0.08678,-0.09102 -0.20955,-0.136525 -0.3683,-0.136525 -0.118533,0 -0.22225,0.02434 -0.31115,0.07303 -0.08678,0.04657 -0.154516,0.115358 -0.2032,0.206375 -0.04657,0.0889 -0.06985,0.19685 -0.06985,0.32385 v 0.8763 H 77.29489 v -1.666875 h 0.2159 v 0.4572 l -0.03492,-0.08572 c 0.05292,-0.12065 0.137584,-0.214842 0.254,-0.282575 0.116417,-0.06985 0.255059,-0.104775 0.415925,-0.104775 z m 1.958287,1.698625 c -0.15875,0 -0.301625,-0.03598 -0.428625,-0.10795 -0.124883,-0.07197 -0.223308,-0.17145 -0.295275,-0.29845 -0.07197,-0.129117 -0.10795,-0.277284 -0.10795,-0.4445 0,-0.169334 0.03598,-0.3175 0.10795,-0.4445 0.07197,-0.127 0.170392,-0.225425 0.295275,-0.295275 0.127,-0.07197 0.269875,-0.10795 0.428625,-0.10795 0.14605,0 0.276225,0.03281 0.390525,0.09843 0.116417,0.06562 0.208492,0.161925 0.276225,0.288925 0.06985,0.124883 0.104749,0.278341 0.104749,0.460375 0,0.179916 -0.03384,0.333375 -0.101574,0.460375 -0.06773,0.127 -0.159808,0.224366 -0.276225,0.2921 -0.1143,0.06562 -0.245533,0.09843 -0.3937,0.09843 z m 0.01587,-0.200025 c 0.118534,0 0.224367,-0.02646 0.3175,-0.07937 0.09525,-0.05503 0.169334,-0.131234 0.22225,-0.2286 0.05503,-0.09948 0.08255,-0.213784 0.08255,-0.3429 0,-0.131234 -0.02752,-0.245534 -0.08255,-0.3429 -0.05292,-0.09737 -0.127,-0.172509 -0.22225,-0.225425 -0.09313,-0.05503 -0.198966,-0.08255 -0.3175,-0.08255 -0.116416,0 -0.221191,0.02752 -0.314325,0.08255 -0.09313,0.05292 -0.167216,0.128058 -0.22225,0.225425 -0.05503,0.09737 -0.08255,0.211666 -0.08255,0.3429 0,0.129116 0.02752,0.243416 0.08255,0.3429 0.05503,0.09737 0.129117,0.173566 0.22225,0.2286 0.09313,0.05292 0.197909,0.07937 0.314325,0.07937 z m 0.628655,0.18415 v -0.50165 l 0.02223,-0.33655 -0.03175,-0.33655 v -1.1811 h 0.225346 v 2.35585 z m 1.722358,0 v -2.2225 h 0.83185 c 0.188384,0 0.350309,0.03069 0.485775,0.09207 0.135467,0.05927 0.239184,0.14605 0.31115,0.26035 0.07408,0.112183 0.111125,0.248708 0.111125,0.409575 0,0.156633 -0.03704,0.2921 -0.111125,0.4064 -0.07197,0.112183 -0.175683,0.198966 -0.31115,0.26035 -0.135466,0.05927 -0.297391,0.0889 -0.485775,0.0889 h -0.701675 l 0.104775,-0.10795 v 0.8128 z m 1.51765,0 -0.5715,-0.80645 h 0.254 l 0.574675,0.80645 z m -1.2827,-0.79375 -0.104775,-0.111125 h 0.695325 c 0.22225,0 0.390525,-0.04868 0.504825,-0.14605 0.116417,-0.09737 0.174625,-0.233892 0.174625,-0.409575 0,-0.1778 -0.05821,-0.315384 -0.174625,-0.41275 -0.1143,-0.09737 -0.282575,-0.14605 -0.504825,-0.14605 h -0.695325 l 0.104775,-0.111125 z m 2.691342,0.809625 c -0.160867,0 -0.305858,-0.03598 -0.434975,-0.10795 -0.127,-0.07408 -0.227542,-0.174625 -0.301625,-0.301625 -0.07408,-0.129117 -0.111125,-0.276225 -0.111125,-0.441325 0,-0.167217 0.03704,-0.314325 0.111125,-0.441325 0.07408,-0.127 0.174625,-0.226484 0.301625,-0.29845 0.127,-0.07197 0.271992,-0.10795 0.434975,-0.10795 0.1651,0 0.31115,0.03598 0.43815,0.10795 0.129117,0.07197 0.229658,0.17145 0.301625,0.29845 0.07408,0.127 0.111125,0.274108 0.111125,0.441325 0,0.1651 -0.03704,0.312208 -0.111125,0.441325 -0.07197,0.127 -0.172508,0.227541 -0.301625,0.301625 -0.129117,0.07197 -0.275167,0.10795 -0.43815,0.10795 z m 0,-0.200025 c 0.12065,0 0.227542,-0.02646 0.320675,-0.07937 0.09313,-0.05503 0.166158,-0.131234 0.219075,-0.2286 0.05503,-0.09948 0.08255,-0.213784 0.08255,-0.3429 0,-0.131234 -0.02752,-0.245534 -0.08255,-0.3429 -0.05292,-0.09737 -0.125942,-0.172509 -0.219075,-0.225425 -0.09313,-0.05503 -0.198967,-0.08255 -0.3175,-0.08255 -0.118533,0 -0.224367,0.02752 -0.3175,0.08255 -0.09313,0.05292 -0.167217,0.128058 -0.22225,0.225425 -0.05503,0.09737 -0.08255,0.211666 -0.08255,0.3429 0,0.129116 0.02752,0.243416 0.08255,0.3429 0.05503,0.09737 0.129117,0.173566 0.22225,0.2286 0.09313,0.05292 0.197908,0.07937 0.314325,0.07937 z m 2.171435,0.200025 c -0.14605,0 -0.277283,-0.03281 -0.3937,-0.09843 -0.116416,-0.06773 -0.208491,-0.1651 -0.276225,-0.2921 -0.06773,-0.127 -0.1016,-0.280459 -0.1016,-0.460375 0,-0.182034 0.03387,-0.335492 0.1016,-0.460375 0.06985,-0.127 0.162984,-0.223309 0.2794,-0.288925 0.116417,-0.06562 0.246592,-0.09843 0.390525,-0.09843 0.15875,0 0.300567,0.03598 0.42545,0.10795 0.127,0.06985 0.226484,0.168275 0.29845,0.295275 0.07197,0.127 0.10795,0.275166 0.10795,0.4445 0,0.167216 -0.03598,0.315383 -0.10795,0.4445 -0.07197,0.127 -0.17145,0.226483 -0.29845,0.29845 -0.124883,0.07197 -0.2667,0.10795 -0.42545,0.10795 z m -0.860425,-0.01588 v -2.35585 h 0.225425 v 1.1811 l -0.03175,0.33655 0.02222,0.33655 v 0.50165 z m 0.84455,-0.18415 c 0.118534,0 0.224367,-0.02646 0.3175,-0.07937 0.09313,-0.05503 0.167217,-0.131234 0.22225,-0.2286 0.05503,-0.09948 0.08255,-0.213784 0.08255,-0.3429 0,-0.131234 -0.02752,-0.245534 -0.08255,-0.3429 -0.05503,-0.09737 -0.129116,-0.172509 -0.22225,-0.225425 -0.09313,-0.05503 -0.198966,-0.08255 -0.3175,-0.08255 -0.118533,0 -0.225425,0.02752 -0.320675,0.08255 -0.09313,0.05292 -0.167216,0.128058 -0.22225,0.225425 -0.05292,0.09737 -0.07938,0.211666 -0.07938,0.3429 0,0.129116 0.02646,0.243416 0.07938,0.3429 0.05503,0.09737 0.129117,0.173566 0.22225,0.2286 0.09525,0.05292 0.202142,0.07937 0.320675,0.07937 z m 1.986757,0.200025 c -0.160867,0 -0.305859,-0.03598 -0.434975,-0.10795 -0.127,-0.07408 -0.227542,-0.174625 -0.301625,-0.301625 -0.07408,-0.129117 -0.111125,-0.276225 -0.111125,-0.441325 0,-0.167217 0.03704,-0.314325 0.111125,-0.441325 0.07408,-0.127 0.174625,-0.226484 0.301625,-0.29845 0.127,-0.07197 0.271991,-0.10795 0.434975,-0.10795 0.1651,0 0.31115,0.03598 0.43815,0.10795 0.129116,0.07197 0.229658,0.17145 0.301625,0.29845 0.07408,0.127 0.111125,0.274108 0.111125,0.441325 0,0.1651 -0.03704,0.312208 -0.111125,0.441325 -0.07197,0.127 -0.172509,0.227541 -0.301625,0.301625 -0.129117,0.07197 -0.275167,0.10795 -0.43815,0.10795 z m 0,-0.200025 c 0.12065,0 0.227541,-0.02646 0.320675,-0.07937 0.09313,-0.05503 0.166158,-0.131234 0.219075,-0.2286 0.05503,-0.09948 0.08255,-0.213784 0.08255,-0.3429 0,-0.131234 -0.02752,-0.245534 -0.08255,-0.3429 -0.05292,-0.09737 -0.125942,-0.172509 -0.219075,-0.225425 -0.09313,-0.05503 -0.198967,-0.08255 -0.3175,-0.08255 -0.118534,0 -0.224367,0.02752 -0.3175,0.08255 -0.09313,0.05292 -0.167217,0.128058 -0.22225,0.225425 -0.05503,0.09737 -0.08255,0.211666 -0.08255,0.3429 0,0.129116 0.02752,0.243416 0.08255,0.3429 0.05503,0.09737 0.129116,0.173566 0.22225,0.2286 0.09313,0.05292 0.197908,0.07937 0.314325,0.07937 z m 1.83806,0.200025 c -0.156633,0 -0.277283,-0.04233 -0.36195,-0.127 -0.08467,-0.08467 -0.127,-0.204259 -0.127,-0.358775 v -1.565275 h 0.225425 v 1.552575 c 0,0.09737 0.02434,0.172508 0.07303,0.225425 0.0508,0.05292 0.122767,0.07937 0.2159,0.07937 0.09948,0 0.182033,-0.02857 0.24765,-0.08572 l 0.07937,0.161925 c -0.04445,0.04022 -0.09842,0.06985 -0.161925,0.0889 -0.06138,0.01905 -0.124883,0.02858 -0.1905,0.02858 z m -0.7874,-1.495425 v -0.187325 h 1.031875 v 0.187325 z m 1.550194,1.47955 v -1.666875 h 0.225425 v 1.666875 z m 0.1143,-2.035175 c -0.04657,0 -0.08573,-0.01588 -0.117475,-0.04762 -0.03175,-0.03175 -0.04762,-0.06985 -0.04762,-0.1143 0,-0.04445 0.01588,-0.08149 0.04762,-0.111125 0.03175,-0.03175 0.07091,-0.04763 0.117475,-0.04763 0.04657,0 0.08572,0.01482 0.117475,0.04445 0.03175,0.02963 0.04762,0.06667 0.04762,0.111125 0,0.04657 -0.01588,0.08573 -0.04762,0.117475 -0.02963,0.03175 -0.06879,0.04762 -0.117475,0.04762 z m 1.430602,2.05105 c -0.1651,0 -0.313267,-0.03598 -0.4445,-0.10795 -0.129117,-0.07408 -0.230717,-0.174625 -0.3048,-0.301625 -0.07408,-0.129117 -0.111125,-0.276225 -0.111125,-0.441325 0,-0.167217 0.03704,-0.314325 0.111125,-0.441325 0.07408,-0.127 0.175683,-0.226484 0.3048,-0.29845 0.131233,-0.07197 0.2794,-0.10795 0.4445,-0.10795 0.141817,0 0.269875,0.02752 0.384175,0.08255 0.1143,0.05503 0.204258,0.137583 0.269875,0.24765 l -0.168275,0.1143 c -0.05715,-0.08467 -0.128058,-0.147109 -0.212725,-0.187325 -0.08467,-0.04022 -0.176742,-0.06033 -0.276225,-0.06033 -0.118533,0 -0.225425,0.02752 -0.320675,0.08255 -0.09525,0.05292 -0.170392,0.128058 -0.225425,0.225425 -0.05503,0.09737 -0.08255,0.211666 -0.08255,0.3429 0,0.131233 0.02752,0.245533 0.08255,0.3429 0.05503,0.09737 0.130175,0.173566 0.225425,0.2286 0.09525,0.05292 0.202142,0.07937 0.320675,0.07937 0.09948,0 0.191558,-0.02011 0.276225,-0.06032 0.08467,-0.04022 0.155575,-0.1016 0.212725,-0.18415 l 0.168275,0.1143 c -0.06562,0.10795 -0.155575,0.1905 -0.269875,0.24765 -0.1143,0.05503 -0.242358,0.08255 -0.384175,0.08255 z m 1.544637,0 c -0.137583,0 -0.267758,-0.01905 -0.390525,-0.05715 -0.122766,-0.04022 -0.219075,-0.08996 -0.288925,-0.149225 l 0.1016,-0.1778 c 0.06773,0.0508 0.154517,0.09525 0.26035,0.13335 0.105834,0.03598 0.216959,0.05397 0.333375,0.05397 0.15875,0 0.27305,-0.02434 0.3429,-0.07303 0.06985,-0.0508 0.104775,-0.117475 0.104775,-0.200025 0,-0.06138 -0.02011,-0.109009 -0.06033,-0.142875 -0.0381,-0.03598 -0.0889,-0.06244 -0.1524,-0.07937 -0.0635,-0.01905 -0.134403,-0.03493 -0.21272,-0.04762 -0.07832,-0.0127 -0.156633,-0.02752 -0.23495,-0.04445 -0.0762,-0.01693 -0.14605,-0.04127 -0.20955,-0.07303 -0.0635,-0.03387 -0.115358,-0.07937 -0.155575,-0.136525 -0.0381,-0.05715 -0.05715,-0.13335 -0.05715,-0.2286 0,-0.09102 0.0254,-0.172509 0.0762,-0.244475 0.0508,-0.07197 0.124884,-0.128059 0.22225,-0.168275 0.09948,-0.04233 0.220134,-0.0635 0.36195,-0.0635 0.10795,0 0.2159,0.01482 0.32385,0.04445 0.10795,0.02752 0.19685,0.06456 0.2667,0.111125 l -0.09843,0.180975 c -0.07408,-0.0508 -0.153458,-0.08678 -0.238125,-0.10795 -0.08467,-0.02328 -0.169333,-0.03493 -0.254,-0.03493 -0.150283,0 -0.261408,0.02646 -0.333375,0.07937 -0.06985,0.0508 -0.104775,0.116416 -0.104775,0.19685 0,0.0635 0.01905,0.113241 0.05715,0.149225 0.04022,0.03598 0.09207,0.06456 0.155575,0.08573 0.06562,0.01905 0.136525,0.03492 0.212725,0.04762 0.07832,0.0127 0.155575,0.02857 0.231775,0.04762 0.07832,0.01693 0.149225,0.04127 0.212725,0.07303 0.06562,0.02963 0.117475,0.07303 0.155575,0.130175 0.04022,0.05503 0.06032,0.128058 0.06032,0.219075 0,0.09737 -0.02752,0.182033 -0.08255,0.254 -0.05292,0.06985 -0.131233,0.124883 -0.23495,0.1651 -0.1016,0.0381 -0.225425,0.05715 -0.371475,0.05715 z"
       id="path1-6"
       style="stroke-width:0.264583" />
  </g>
</svg>
